# xmcd CD database file
#
# Track frame offsets:
#	150
#	34957
#	86888
#	127503
#	151525
#	167033
#	209740
#	263984
#
# Disc length: 4202 seconds
#
# Revision: 0
# Processed by: cddbd v1.5.2PL0 Copyright (c) Steve Scherf et al.
# Submitted via: CDex 1.51
#
DISCID=64106808
DTITLE=Magic Malik - Tranz Denied 
DYEAR=2013
DGENRE=Jazz
TTITLE0=Montreuil Market
TTITLE1=Dark Stone
TTITLE2=Zivanoul
TTITLE3=E-Z.com
TTITLE4=Shibuya Memories
TTITLE5=North
TTITLE6=Chunky Delice
TTITLE7=Tranz Denied
EXTD=YEAR: 2013
EXTT0=
EXTT1=
EXTT2=
EXTT3=
EXTT4=
EXTT5=
EXTT6=
EXTT7=
PLAYORDER=
